<svg xmlns="http://www.w3.org/2000/svg" viewBox="0 -0.5 30 30" shape-rendering="crispEdges">
<metadata>Made with Pixels to Svg https://codepen.io/shshaw/pen/XbxvNj</metadata>
<path stroke="#ffffff" d="M12 2h5M11 3h7M10 4h3M16 4h3M9 5h3M14 5h2M17 5h3M9 6h2M13 6h2M18 6h2M9 7h2M12 7h2M18 7h2M9 8h2M12 8h1M19 8h2M9 9h2M20 9h2M9 10h2M21 10h2M8 11h2M22 11h2M7 12h2M23 12h3M6 13h2M25 13h2M5 14h2M26 14h1M4 15h2M23 15h1M26 15h2M3 16h2M22 16h2M27 16h1M2 17h2M21 17h3M27 17h1M2 18h2M20 18h2M23 18h1M27 18h1M3 19h2M19 19h2M23 19h2M26 19h2M4 20h2M18 20h2M24 20h3M5 21h2M17 21h2M25 21h1M6 22h2M16 22h2M7 23h2M15 23h2M8 24h2M14 24h2M9 25h2M13 25h2M10 26h4M11 27h2" />
<path stroke="#3f4955" d="M13 4h3M12 5h1M16 5h1M11 6h1M17 6h1M11 7h1M17 7h1M11 8h1M17 8h1M11 9h1M17 9h1M11 10h1M17 10h1M11 11h1M17 11h1M17 12h1M17 13h1" />
<path stroke="#cad4e0" d="M15 6h2M14 7h3M13 8h4M18 8h1M12 9h5M18 9h2M12 10h5M18 10h3M10 11h1M12 11h5M18 11h3M9 12h8M18 12h3M8 13h9M18 13h4M7 14h14M6 15h14M5 16h14M5 17h12M8 18h6" />
<path stroke="#ffb921" d="M21 11h1M22 12h1M23 13h2M25 14h1M25 15h1" />
<path stroke="#ffb000" d="M21 12h1M22 13h1M22 14h3M24 15h1M24 16h3M24 17h2M24 18h1" />
<path stroke="#a4b3c4" d="M21 14h1M20 15h3M19 16h3M4 17h1M17 17h4M4 18h4M14 18h6M5 19h14M6 20h12M7 21h10M8 22h8M9 23h6M10 24h4M11 25h2" />
<path stroke="#f49600" d="M26 17h1M25 18h2M25 19h1" />
</svg>