<svg xmlns="http://www.w3.org/2000/svg" viewBox="0 -0.5 30 30" shape-rendering="crispEdges">
<metadata>Made with Pixels to Svg https://codepen.io/shshaw/pen/XbxvNj</metadata>
<path stroke="#ffffff" d="M18 2h3M17 3h5M16 4h2M21 4h2M15 5h2M22 5h2M14 6h2M23 6h2M13 7h2M24 7h2M12 8h2M25 8h2M11 9h2M26 9h2M10 10h2M26 10h2M9 11h2M26 11h2M8 12h2M25 12h2M7 13h2M24 13h2M6 14h2M23 14h2M5 15h2M22 15h2M4 16h2M21 16h2M3 17h2M20 17h2M3 18h2M19 18h2M3 19h2M18 19h2M4 20h2M17 20h2M5 21h2M16 21h2M6 22h2M15 22h2M7 23h2M14 23h2M8 24h2M13 24h2M9 25h5M2 26h18M22 26h2M26 26h2M2 27h18M22 27h2M26 27h2" />
<path stroke="#ff7889" d="M18 4h3M17 5h5M16 6h7M15 7h9M14 8h11M13 9h12M12 10h12M11 11h12M10 12h12M9 13h12M8 14h11M7 15h11M6 16h10M5 17h9M5 18h6" />
<path stroke="#ff5d70" d="M25 9h1M24 10h2M23 11h3M22 12h3M21 13h3M19 14h4M18 15h4M16 16h5M14 17h6M11 18h8M5 19h13M6 20h11M7 21h9M8 22h7M9 23h5M10 24h3" />
</svg>