<svg xmlns="http://www.w3.org/2000/svg" viewBox="0 -0.5 30 30" shape-rendering="crispEdges">
<metadata>Made with Pixels to Svg https://codepen.io/shshaw/pen/XbxvNj</metadata>
<path stroke="#ffffff" d="M13 2h4M11 3h8M9 4h12M7 5h6M17 5h6M5 6h6M19 6h6M3 7h6M21 7h6M2 8h5M23 8h5M2 9h3M25 9h3M2 10h2M26 10h2M2 11h2M26 11h2M2 12h3M25 12h3M2 13h2M26 13h2M2 14h2M26 14h2M2 15h3M25 15h3M2 16h2M26 16h2M2 17h2M26 17h2M2 18h3M25 18h3M2 19h2M26 19h2M2 20h2M26 20h2M2 21h3M25 21h3M2 22h5M23 22h5M3 23h6M21 23h6M5 24h6M19 24h6M7 25h6M17 25h6M9 26h12M11 27h8M13 28h4" />
<path stroke="#9cacbf" d="M13 5h4M11 6h2M17 6h2M9 7h2M19 7h2M7 8h2M21 8h2M5 9h2M23 9h2M4 10h1M25 10h1M4 11h1M25 11h1M5 12h2M23 12h2M4 13h1M7 13h2M21 13h2M25 13h1M4 14h1M9 14h2M19 14h2M25 14h1M5 15h2M11 15h2M17 15h2M23 15h2M4 16h1M7 16h2M13 16h4M21 16h2M25 16h1M4 17h1M9 17h2M19 17h2M25 17h1M5 18h2M11 18h2M17 18h2M23 18h2M7 19h2M13 19h4M21 19h2M9 20h2M19 20h2M11 21h2M17 21h2M13 22h4" />
<path stroke="#d3dde8" d="M13 6h4M11 7h8M9 8h12M7 9h16M5 10h20M5 11h20M7 12h16M5 13h2M9 13h12M23 13h2M5 14h4M11 14h8M21 14h4M7 15h4M13 15h4M19 15h4M5 16h2M9 16h4M17 16h4M23 16h2M5 17h4M11 17h8M21 17h4M7 18h4M13 18h4M19 18h4M9 19h4M17 19h4M11 20h8M13 21h4" />
<path stroke="#f49600" d="M4 19h1M25 19h1M4 20h1M25 20h1M5 21h2M23 21h2M7 22h2M21 22h2M9 23h2M19 23h2M11 24h2M17 24h2M13 25h4" />
<path stroke="#ffb921" d="M5 19h2M23 19h2M7 20h2M21 20h2M9 21h2M19 21h2M11 22h2M17 22h2M13 23h4" />
<path stroke="#ffb000" d="M5 20h2M23 20h2M7 21h2M21 21h2M9 22h2M19 22h2M11 23h2M17 23h2M13 24h4" />
</svg>