<svg xmlns="http://www.w3.org/2000/svg" viewBox="0 -0.5 30 30" shape-rendering="crispEdges">
<metadata>Made with Pixels to Svg https://codepen.io/shshaw/pen/XbxvNj</metadata>
<path stroke="#ffffff" d="M21 2h3M20 3h5M19 4h2M24 4h2M18 5h2M25 5h2M17 6h2M26 6h2M16 7h2M26 7h2M15 8h2M26 8h2M14 9h2M25 9h2M13 10h2M24 10h2M12 11h2M23 11h2M11 12h2M22 12h2M10 13h2M21 13h2M9 14h2M20 14h2M8 15h2M19 15h2M7 16h2M18 16h2M6 17h2M17 17h2M5 18h2M16 18h2M4 19h2M15 19h2M3 20h2M14 20h2M3 21h2M13 21h2M3 22h2M12 22h2M3 23h2M11 23h2M3 24h2M10 24h2M3 25h8M3 26h7" />
<path stroke="#f84006" d="M21 4h3M20 5h4M19 6h5M20 7h3M21 8h1" />
<path stroke="#db3300" d="M24 5h1M24 6h2M23 7h3M22 8h4M22 9h3M23 10h1" />
<path stroke="#ffd807" d="M18 7h1M17 8h3M16 9h5M15 10h5M14 11h6M13 12h6M12 13h6M11 14h6M10 15h6M9 16h6M8 17h6M7 18h6M7 19h5M8 20h3" />
<path stroke="#ebeef0" d="M19 7h1M20 8h1" />
<path stroke="#cad8dc" d="M21 9h1M22 10h1" />
<path stroke="#ffc000" d="M20 10h2M20 11h3M19 12h3M18 13h3M17 14h3M16 15h3M15 16h3M14 17h3M13 18h3M12 19h3M11 20h3M9 21h4M10 22h2" />
<path stroke="#ffb770" d="M6 19h1M5 20h3M5 21h4M6 22h2" />
<path stroke="#355a64" d="M5 22h1M5 23h2M5 24h1" />
<path stroke="#ffa751" d="M8 22h2M7 23h4M8 24h2" />
<path stroke="#2a444d" d="M6 24h2" />
</svg>