<svg xmlns="http://www.w3.org/2000/svg" viewBox="0 -0.5 30 30" shape-rendering="crispEdges">
<metadata>Made with Pixels to Svg https://codepen.io/shshaw/pen/XbxvNj</metadata>
<path stroke="#ffffff" d="M2 2h20M2 3h20M2 4h2M20 4h4M2 5h2M20 5h4M2 6h2M22 6h4M2 7h2M22 7h4M2 8h2M24 8h4M2 9h2M24 9h4M2 10h2M26 10h2M2 11h2M26 11h2M2 12h2M26 12h2M2 13h2M26 13h2M2 14h2M26 14h2M2 15h2M26 15h2M2 16h2M26 16h2M2 17h2M26 17h2M2 18h2M26 18h2M2 19h2M26 19h2M2 20h2M26 20h2M2 21h2M26 21h2M2 22h2M26 22h2M2 23h2M26 23h2M2 24h2M26 24h2M2 25h2M26 25h2M2 26h26M2 27h26" />
<path stroke="#476190" d="M4 4h2M18 4h2M4 5h2M14 5h2M18 5h2M20 6h2M20 7h2M22 8h2M22 9h2M24 10h2M24 11h2" />
<path stroke="#f5f8fc" d="M6 4h12M6 5h8M16 5h2" />
<path stroke="#2c4063" d="M4 6h2M14 6h2M18 6h2M4 7h2M14 7h2M18 7h2M4 8h2M14 8h2M18 8h4M4 9h2M14 9h2M18 9h4M4 10h20M4 11h20M4 12h22M4 13h22M4 14h22M4 15h22M4 16h22M4 17h3M23 17h3M4 18h3M23 18h3M4 19h3M23 19h3M4 20h3M23 20h3M4 21h3M23 21h3M4 22h3M23 22h3M4 23h3M23 23h3M4 24h3M23 24h3M4 25h3M23 25h3" />
<path stroke="#eaf0f9" d="M6 6h8M16 6h2M6 7h8M16 7h2M6 8h8M16 8h2M6 9h8M16 9h2" />
<path stroke="#dbe5f6" d="M7 17h16M7 18h16M7 19h1M22 19h1M7 20h16M7 21h1M22 21h1M7 22h16M7 23h1M22 23h1M7 24h16M7 25h16" />
<path stroke="#141b28" d="M8 19h14M8 21h14M8 23h14" />
</svg>