<svg xmlns="http://www.w3.org/2000/svg" viewBox="0 -0.5 30 30" shape-rendering="crispEdges">
<metadata>Made with Pixels to Svg https://codepen.io/shshaw/pen/XbxvNj</metadata>
<path stroke="#ffffff" d="M3 2h4M9 2h4M15 2h4M3 3h4M9 3h4M15 3h4M3 6h2M19 6h2M3 7h2M19 7h2M3 8h2M13 8h2M19 8h2M3 9h2M13 9h3M19 9h2M13 10h4M13 11h2M16 11h2M3 12h2M13 12h2M17 12h4M3 13h2M13 13h2M18 13h3M3 14h2M13 14h2M19 14h2M3 15h2M13 15h2M20 15h2M13 16h2M21 16h2M13 17h2M22 17h2M3 18h4M9 18h6M23 18h2M3 19h4M9 19h6M24 19h2M13 20h2M19 20h8M13 21h2M18 21h10M13 22h2M17 22h2M13 23h2M16 23h2M13 24h4M13 25h3M13 26h2" />
<path stroke="#15202b" d="M15 11h1M15 12h2M15 13h3M16 14h3M17 15h3M18 16h3M19 17h3M20 18h3M21 19h3" />
<path stroke="#0e171f" d="M15 14h1M15 15h2M15 16h3M15 17h4M15 18h5M15 19h6M15 20h4M15 21h3M15 22h2M15 23h1" />
</svg>