<svg xmlns="http://www.w3.org/2000/svg" viewBox="0 -0.5 30 30" shape-rendering="crispEdges">
<metadata>Made with Pixels to Svg https://codepen.io/shshaw/pen/XbxvNj</metadata>
<path stroke="#ffffff" d="M3 2h25M3 3h25M3 4h2M26 4h2M3 5h2M26 5h2M3 6h2M26 6h2M3 7h2M26 7h2M3 8h2M26 8h2M3 9h2M26 9h2M3 10h2M26 10h2M3 11h2M26 11h2M3 12h2M26 12h2M3 13h2M26 13h2M3 14h2M26 14h2M3 15h2M26 15h2M3 16h2M26 16h2M3 17h2M26 17h2M3 18h2M26 18h2M3 19h2M26 19h2M3 20h2M26 20h2M3 21h2M26 21h2M3 22h2M26 22h2M3 23h2M26 23h2M3 24h2M26 24h2M3 25h25M3 26h25" />
<path stroke="#ffd807" d="M7 7h3M7 8h3M7 9h3" />
<path stroke="#476190" d="M16 9h1M15 10h3M14 11h2M18 11h1M10 12h2M13 12h2M19 12h1M9 13h2M12 13h2M20 13h1M8 14h2M21 14h1M7 15h2M6 16h2" />
<path stroke="#2c4063" d="M16 11h2M15 12h4M11 13h1M14 13h6M10 14h11M9 15h10M8 16h11M6 17h13" />
<path stroke="#8ce99b" d="M20 16h2M20 17h2M20 18h2M17 19h8M17 20h8M20 21h2M20 22h2M20 23h2" />
</svg>